<svg id="logo__home" xmlns="http://www.w3.org/2000/svg" xmlns:xlink="http://www.w3.org/1999/xlink" width="231.529" height="77.933" viewBox="0 0 231.529 77.933">
  <defs>
    <clipPath id="clip-path">
      <rect id="Retângulo_121" data-name="Retângulo 121" width="231.529" height="77.933" fill="none"/>
    </clipPath>
  </defs>
  <g id="Grupo_205" data-name="Grupo 205" clip-path="url(#clip-path)">
    <path id="Caminho_700" data-name="Caminho 700" d="M26.589,0A42.1,42.1,0,0,0,0,38.907H.146c.063-10.5,12.69-16.029,26.443-18.3Z" transform="translate(0 -0.003)" fill="#161615" fill-rule="evenodd"/>
    <path id="Caminho_701" data-name="Caminho 701" d="M26.589,125.154A42.079,42.079,0,0,1,0,86.252H.146c.063,10.518,12.69,16.028,26.443,18.323Z" transform="translate(0 -47.222)" fill="#80ae12" fill-rule="evenodd"/>
    <path id="Caminho_702" data-name="Caminho 702" d="M116.135,125.08a42.149,42.149,0,0,0,26.609-38.964H142.6c-.062,10.539-12.689,16.07-26.463,18.365Z" transform="translate(-63.582 -47.147)" fill="#161615" fill-rule="evenodd"/>
    <path id="Caminho_703" data-name="Caminho 703" d="M116.132,0a42.156,42.156,0,0,1,26.606,38.967h-.146c-.058-10.512-12.7-16.057-26.469-18.34Z" transform="translate(-63.575)" fill="#80ae12" fill-rule="evenodd"/>
    <path id="Caminho_704" data-name="Caminho 704" d="M446.93,42.414l1.863-13.256c.059-.238.079-.456.118-.615.021-.138.041-.278.06-.376a2.593,2.593,0,0,0,.041-.475,1.77,1.77,0,0,0-1.169-1.686v-.058h5.865a6.11,6.11,0,0,0,.377,1.347l6.341,13.831,5.667-13.534a4.878,4.878,0,0,0,.4-1.644h5.785v.058c-.633.2-.971.794-1.03,1.745a2.388,2.388,0,0,1,.06.633l2.161,14.883a6.454,6.454,0,0,0,.495,2.021,3.421,3.421,0,0,0,1.249,1.169l-.059.058h-6.44V46.4A1.787,1.787,0,0,0,470,44.515c0-.357,0-.615-.019-.793a4.338,4.338,0,0,0-.04-.5l-1.763-14.247-7.49,17.913a6.516,6.516,0,0,1-1.585-1.387,9.651,9.651,0,0,1-1.149-1.923l-6.6-14.6-2.022,14.346a5.276,5.276,0,0,1-.059.932A2.264,2.264,0,0,0,450.5,46.4v.119h-5.41V46.4q1.427-1.011,1.843-3.983" transform="translate(-243.678 -14.206)" fill="#161615" fill-rule="evenodd"/>
    <path id="Caminho_705" data-name="Caminho 705" d="M372.632,43.385V29.3c0-1.8-.515-2.893-1.506-3.291v-.058h8.065a10.394,10.394,0,0,1,5.429,1.308,4.646,4.646,0,0,1,2.3,4.062,4.666,4.666,0,0,1-1.962,4.141,8.627,8.627,0,0,1-4.181,1.763,7.309,7.309,0,0,0-1.308.139,6.676,6.676,0,0,1-2.4-.575,6.879,6.879,0,0,0,4.122-1.348,4,4,0,0,0,1.844-3.467,3.3,3.3,0,0,0-1.288-2.873,6.011,6.011,0,0,0-3.449-.912,12.42,12.42,0,0,0-2.3.2V43.268a3.9,3.9,0,0,0,.376,1.862A3.173,3.173,0,0,0,377.7,46.4l.06.119h-6.638V46.4c.991-.4,1.506-1.407,1.506-3.012" transform="translate(-203.186 -14.206)" fill="#161615" fill-rule="evenodd"/>
    <path id="Caminho_706" data-name="Caminho 706" d="M352.823,42.1V30.109a13.217,13.217,0,0,0-.218-2.893,1.75,1.75,0,0,0-1.228-1.209v-.059h6.342v.059a2.033,2.033,0,0,0-.754.515,1.9,1.9,0,0,0-.435.812,4.246,4.246,0,0,0-.178,1.049q-.06.565-.06,1.725V42.1a11.364,11.364,0,0,0,.258,3.031,2.147,2.147,0,0,0,1.17,1.268v.119h-6.342V46.4a1.711,1.711,0,0,0,1.189-1.268,12.418,12.418,0,0,0,.257-3.031" transform="translate(-192.373 -14.206)" fill="#161615" fill-rule="evenodd"/>
    <path id="Caminho_707" data-name="Caminho 707" d="M299.674,42.732v-13.2a4.516,4.516,0,0,0-.417-2.319,4.094,4.094,0,0,0-1.347-1.21v-.058h4.914c0,.2.336.693,1.03,1.467l12.185,14.4V29.594a6.861,6.861,0,0,0-.3-2.16,2.579,2.579,0,0,0-1.487-1.428v-.058h5.885v.058a3.749,3.749,0,0,0-1.388,1.329,5.409,5.409,0,0,0-.376,2.4l.058,17.754a7.427,7.427,0,0,1-2.536-1.15,12.917,12.917,0,0,1-1.863-1.8L302.091,30.327v12.4a5.332,5.332,0,0,0,.337,2.279,4.147,4.147,0,0,0,1.428,1.387v.119h-5.945V46.4a2.8,2.8,0,0,0,1.406-1.327,6.013,6.013,0,0,0,.358-2.338" transform="translate(-163.102 -14.206)" fill="#161615" fill-rule="evenodd"/>
    <path id="Caminho_708" data-name="Caminho 708" d="M280.464,42.1V30.109a12.042,12.042,0,0,0-.219-2.893,1.759,1.759,0,0,0-1.208-1.209v-.059h6.34v.059a1.95,1.95,0,0,0-.772.515,2.151,2.151,0,0,0-.436.812,7.7,7.7,0,0,0-.179,1.049q-.058.565-.058,1.725V42.1a11.114,11.114,0,0,0,.277,3.031,2.088,2.088,0,0,0,1.169,1.268v.119h-6.34V46.4a1.784,1.784,0,0,0,1.188-1.268,13.817,13.817,0,0,0,.238-3.031" transform="translate(-152.769 -14.206)" fill="#161615" fill-rule="evenodd"/>
    <path id="Caminho_709" data-name="Caminho 709" d="M242.62,42.613V29.792a9.29,9.29,0,0,0-.276-2.556,1.823,1.823,0,0,0-1.229-1.229v-.058h6.38v.058a1.752,1.752,0,0,0-1.209,1.07,7.394,7.394,0,0,0-.337,2.023,5.43,5.43,0,0,1,.04.692V44.019c.633.02,1.308.041,2,.08s1.308.079,1.843.119c.516.019.853.04.99.04a9.363,9.363,0,0,0,5.668-1.9l.08.058-1.7,4.1H241.114V46.4c.99-.316,1.506-1.368,1.506-3.13Z" transform="translate(-132.006 -14.206)" fill="#161615" fill-rule="evenodd"/>
    <path id="Caminho_710" data-name="Caminho 710" d="M195.548,36.466a11.835,11.835,0,0,1,1.189-6.023,9.9,9.9,0,0,1,4.122-4.241,13.127,13.127,0,0,1,6.441-1.526,24.524,24.524,0,0,1,6.023.873V29.1a11.721,11.721,0,0,0-6.421-1.783,7.311,7.311,0,0,0-5.549,2.319,8.169,8.169,0,0,0-2.059,5.429,9.67,9.67,0,0,0,1.11,4.3,8.081,8.081,0,0,0,3.011,3.212,8.679,8.679,0,0,0,4.736,1.188,15.284,15.284,0,0,0,6.8-2.041h.1l-1.725,3.667a13.793,13.793,0,0,1-2.853.752,14.805,14.805,0,0,1-2.7.179,14.621,14.621,0,0,1-8.362-2.5,9.236,9.236,0,0,1-3.864-7.352" transform="translate(-107.048 -13.51)" fill="#161615" fill-rule="evenodd"/>
    <path id="Caminho_711" data-name="Caminho 711" d="M401.311,42.038l5.708-13.474a4.8,4.8,0,0,0,.336-1.348,1.144,1.144,0,0,0-.971-1.21v-.058h5.271l7.391,17.041a14.911,14.911,0,0,0,1.249,2.2,4.475,4.475,0,0,0,1.624,1.208v.119h-6.856V46.4c.772-.3,1.169-.653,1.169-1.05a3.115,3.115,0,0,0-.4-1.268c-2.813-7.015-3.21-7.808-6.379-15.515-2.715,6.439-3.865,9.431-6.144,15.257a6.833,6.833,0,0,0-.336,1.229,1.522,1.522,0,0,0,1.248,1.347v.119H398.1V46.4a4.712,4.712,0,0,0,1.487-1.109,6.277,6.277,0,0,0,.91-1.388c.238-.5.495-1.109.812-1.862" transform="translate(-217.954 -14.206)" fill="#161615" fill-rule="evenodd"/>
    <path id="Caminho_712" data-name="Caminho 712" d="M217.2,126.245h-.583l-.107-1.547h-.024a3.069,3.069,0,0,1-2.94,1.726c-2.678,0-4.011-2.107-4.011-4.428s1.333-4.428,4.011-4.428a3.331,3.331,0,0,1,3.547,2.821h-.809a2.651,2.651,0,0,0-2.738-2.131c-2.25,0-3.2,1.881-3.2,3.737s.952,3.738,3.2,3.738a2.823,2.823,0,0,0,2.94-3.119h-2.892v-.691H217.2Z" transform="translate(-114.717 -64.367)" fill="#464545"/>
    <path id="Caminho_713" data-name="Caminho 713" d="M229.6,123.067h.691v1.44h.024a2.27,2.27,0,0,1,2.321-1.524v.75a2.115,2.115,0,0,0-2.285,2.2v3.273h-.75Z" transform="translate(-125.703 -67.33)" fill="#464545"/>
    <path id="Caminho_714" data-name="Caminho 714" d="M242.846,129.313h-.69v-1.107h-.024a2.284,2.284,0,0,1-2.119,1.286c-1.548,0-2.154-.9-2.154-2.333v-3.988h.749v4c.036,1.107.453,1.69,1.643,1.69,1.286,0,1.845-1.214,1.845-2.463v-3.226h.749Z" transform="translate(-130.224 -67.434)" fill="#464545"/>
    <path id="Caminho_715" data-name="Caminho 715" d="M252.008,122.955h.691v1.167h.024a2.3,2.3,0,0,1,2.19-1.345c1.869,0,2.762,1.512,2.762,3.25s-.893,3.25-2.762,3.25a2.191,2.191,0,0,1-2.131-1.345h-.024v3.44h-.75Zm2.9.453c-1.655,0-2.154,1.226-2.154,2.619,0,1.274.559,2.619,2.154,2.619,1.428,0,2.011-1.345,2.011-2.619s-.583-2.619-2.011-2.619" transform="translate(-137.97 -67.218)" fill="#464545"/>
    <path id="Caminho_716" data-name="Caminho 716" d="M272.231,126.026c0,1.762-1.024,3.25-2.9,3.25s-2.9-1.488-2.9-3.25,1.024-3.25,2.9-3.25,2.9,1.488,2.9,3.25m-5.059,0c0,1.309.715,2.619,2.155,2.619s2.154-1.31,2.154-2.619-.714-2.619-2.154-2.619-2.155,1.309-2.155,2.619" transform="translate(-145.862 -67.218)" fill="#464545"/>
    <path id="Caminho_717" data-name="Caminho 717" d="M460.019,149.764c-.015.021-1.6,2.159-10.588,2.574a67.7,67.7,0,0,1-11.271-.616,60.656,60.656,0,0,0-9.707-.581c-7.211.3-10.7,2.758-10.739,2.782l.131.2c.034-.02,3.5-2.038,10.64-2.335a60.594,60.594,0,0,1,9.672.58,67.775,67.775,0,0,0,11.307.618c9.109-.42,10.695-2.983,10.758-3.092Z" transform="translate(-228.692 -81.993)" fill="#f68700"/>
    <path id="Caminho_718" data-name="Caminho 718" d="M368.672,103.128h.91l4.978,7.228h.024v-7.228h.814v8.545h-.91l-4.978-7.228h-.024v7.228h-.813Z" transform="translate(-201.842 -56.461)" fill="#464545"/>
    <path id="Caminho_719" data-name="Caminho 719" d="M392.148,111.234c0,1.771-1.029,3.267-2.92,3.267s-2.92-1.5-2.92-3.267,1.029-3.267,2.92-3.267,2.92,1.5,2.92,3.267m-5.086,0c0,1.316.718,2.633,2.166,2.633s2.166-1.316,2.166-2.633-.718-2.633-2.166-2.633-2.166,1.316-2.166,2.633" transform="translate(-211.498 -59.11)" fill="#464545"/>
    <path id="Caminho_720" data-name="Caminho 720" d="M402.127,106.12h1.257v.634h-1.257v4.165c0,.491.072.778.61.814a5.836,5.836,0,0,0,.646-.036v.646c-.228,0-.443.024-.67.024-1.005,0-1.353-.335-1.34-1.388v-4.224H400.3v-.634h1.077v-1.855h.754Z" transform="translate(-219.156 -57.083)" fill="#464545"/>
    <path id="Caminho_721" data-name="Caminho 721" d="M409.524,108.259h.694v1.448h.024a2.281,2.281,0,0,1,2.334-1.532v.754a2.127,2.127,0,0,0-2.3,2.214v3.291h-.754Z" transform="translate(-224.208 -59.223)" fill="#464545"/>
    <path id="Caminho_722" data-name="Caminho 722" d="M417.443,111.438a2.19,2.19,0,0,0,2.035,2.429,1.88,1.88,0,0,0,1.938-1.58h.754a2.521,2.521,0,0,1-2.692,2.214c-1.963,0-2.789-1.508-2.789-3.267,0-1.628.825-3.267,2.789-3.267,1.986,0,2.776,1.735,2.716,3.471Zm4-.634a2.076,2.076,0,0,0-1.963-2.2,2.191,2.191,0,0,0-2.035,2.2Z" transform="translate(-228.131 -59.11)" fill="#464545"/>
    <path id="Caminho_723" data-name="Caminho 723" d="M431.418,103.127h2.956c2.573.06,3.925,1.472,3.925,4.273s-1.352,4.212-3.925,4.272h-2.956Zm.814,7.851h1.735c2.453.012,3.518-1.029,3.518-3.578s-1.065-3.59-3.518-3.578h-1.735Z" transform="translate(-236.195 -56.46)" fill="#464545"/>
    <path id="Caminho_724" data-name="Caminho 724" d="M448.736,110.037c.072-1.448,1.089-2.07,2.5-2.07,1.089,0,2.274.335,2.274,1.987v3.279a.4.4,0,0,0,.443.455.707.707,0,0,0,.239-.048v.634a2.074,2.074,0,0,1-.491.048c-.766,0-.885-.431-.885-1.077h-.024a2.352,2.352,0,0,1-2.249,1.256c-1.137,0-2.07-.562-2.07-1.807,0-1.735,1.687-1.8,3.315-1.987.622-.071.969-.156.969-.838,0-1.017-.73-1.269-1.615-1.269-.934,0-1.628.431-1.652,1.436Zm4.021.91h-.024c-.1.179-.43.239-.634.275-1.28.228-2.872.215-2.872,1.424a1.286,1.286,0,0,0,1.376,1.221,1.985,1.985,0,0,0,2.154-1.939Z" transform="translate(-245.532 -59.11)" fill="#464545"/>
    <path id="Caminho_725" data-name="Caminho 725" d="M462.938,108.147h.694v1.041h.036a2.156,2.156,0,0,1,2.022-1.22,1.717,1.717,0,0,1,1.772,1.208,2.087,2.087,0,0,1,1.962-1.208c1.353,0,2.047.706,2.047,2.166v4.188h-.754v-4.153c0-1.017-.382-1.568-1.46-1.568-1.3,0-1.676,1.077-1.676,2.226v3.494h-.753v-4.188c.012-.838-.335-1.532-1.293-1.532-1.3,0-1.83.982-1.843,2.274v3.446h-.753Z" transform="translate(-253.451 -59.111)" fill="#464545"/>
    <path id="Caminho_726" data-name="Caminho 726" d="M485.029,111.438a2.19,2.19,0,0,0,2.035,2.429,1.882,1.882,0,0,0,1.939-1.58h.753a2.522,2.522,0,0,1-2.692,2.214c-1.963,0-2.788-1.508-2.788-3.267,0-1.628.825-3.267,2.788-3.267,1.987,0,2.777,1.735,2.717,3.471Zm4-.634a2.075,2.075,0,0,0-1.963-2.2,2.191,2.191,0,0,0-2.035,2.2Z" transform="translate(-265.134 -59.11)" fill="#464545"/>
    <rect id="Retângulo_119" data-name="Retângulo 119" width="0.796" height="8.36" transform="translate(166.881 58.065)" fill="#464545"/>
    <path id="Caminho_727" data-name="Caminho 727" d="M374.064,133.227h.738v1.042h.023a2.049,2.049,0,0,1,1.932-1.218c1.7,0,2.213.89,2.213,2.33v3.887h-.737V135.5c0-1.042-.34-1.827-1.534-1.827a1.907,1.907,0,0,0-1.9,2.073v3.524h-.738Z" transform="translate(-204.794 -72.843)" fill="#464545"/>
    <path id="Caminho_728" data-name="Caminho 728" d="M388.4,131.243h1.229v.621H388.4v4.074c0,.481.07.762.6.8a5.8,5.8,0,0,0,.632-.035v.632c-.222,0-.433.023-.655.023-.984,0-1.323-.328-1.311-1.358v-4.133h-1.054v-.621h1.054v-1.815h.738Z" transform="translate(-211.664 -70.86)" fill="#464545"/>
    <path id="Caminho_729" data-name="Caminho 729" d="M395.706,136.447a2.142,2.142,0,0,0,1.991,2.377,1.841,1.841,0,0,0,1.9-1.546h.738a2.468,2.468,0,0,1-2.634,2.167c-1.921,0-2.729-1.476-2.729-3.2,0-1.592.808-3.2,2.729-3.2,1.943,0,2.716,1.7,2.657,3.4Zm3.911-.621a2.031,2.031,0,0,0-1.92-2.154,2.143,2.143,0,0,0-1.991,2.154Z" transform="translate(-216.239 -72.843)" fill="#464545"/>
    <path id="Caminho_730" data-name="Caminho 730" d="M409.069,133.337h.679v1.417h.024a2.232,2.232,0,0,1,2.283-1.5v.738a2.081,2.081,0,0,0-2.248,2.166v3.22h-.738Z" transform="translate(-223.959 -72.953)" fill="#464545"/>
    <path id="Caminho_731" data-name="Caminho 731" d="M417.219,133.227h.679v1.019h.035a2.11,2.11,0,0,1,1.979-1.194,1.68,1.68,0,0,1,1.733,1.182,2.042,2.042,0,0,1,1.92-1.182c1.323,0,2,.691,2,2.119v4.1h-.738v-4.063c0-1-.374-1.534-1.428-1.534-1.277,0-1.639,1.054-1.639,2.178v3.419h-.738v-4.1c.012-.82-.328-1.5-1.264-1.5-1.277,0-1.792.96-1.8,2.225v3.372h-.738Z" transform="translate(-228.421 -72.843)" fill="#464545"/>
    <path id="Caminho_732" data-name="Caminho 732" d="M438.836,133.642a2.142,2.142,0,0,0,1.99,2.377,1.841,1.841,0,0,0,1.9-1.546h.738a2.468,2.468,0,0,1-2.635,2.167c-1.921,0-2.728-1.476-2.728-3.2,0-1.592.808-3.2,2.728-3.2,1.944,0,2.716,1.7,2.658,3.4Zm3.91-.621a2.03,2.03,0,0,0-1.92-2.154,2.143,2.143,0,0,0-1.99,2.154Zm-2.107-3.442h-.6l1.229-1.651h.913Z" transform="translate(-239.852 -70.039)" fill="#464545"/>
    <path id="Caminho_733" data-name="Caminho 733" d="M457.2,136.676h-.679v-1.148H456.5a2.392,2.392,0,0,1-2.154,1.324c-1.839,0-2.716-1.487-2.716-3.2s.877-3.2,2.716-3.2a2.156,2.156,0,0,1,2.1,1.323h.023v-3.465h.738Zm-2.857-.445c1.569,0,2.119-1.323,2.119-2.576s-.55-2.576-2.119-2.576c-1.405,0-1.979,1.323-1.979,2.576s.574,2.576,1.979,2.576" transform="translate(-247.26 -70.251)" fill="#464545"/>
    <path id="Caminho_734" data-name="Caminho 734" d="M467.075,128.316h.738V129.5h-.738Zm0,2.318h.738v6.042h-.738Z" transform="translate(-255.716 -70.251)" fill="#464545"/>
    <path id="Caminho_735" data-name="Caminho 735" d="M475.73,135.123a1.642,1.642,0,0,0-1.71-1.452c-1.416,0-2.119,1.288-2.119,2.576s.7,2.576,2.119,2.576a1.8,1.8,0,0,0,1.757-1.721h.737a2.459,2.459,0,0,1-2.494,2.342,3.217,3.217,0,0,1,0-6.393,2.259,2.259,0,0,1,2.447,2.073Z" transform="translate(-257.955 -72.843)" fill="#464545"/>
    <path id="Caminho_736" data-name="Caminho 736" d="M484.8,135.076c.071-1.417,1.066-2.026,2.448-2.026,1.065,0,2.224.328,2.224,1.944V138.2a.393.393,0,0,0,.433.445.689.689,0,0,0,.234-.047v.62a2.015,2.015,0,0,1-.48.047c-.749,0-.867-.421-.867-1.053h-.023a2.3,2.3,0,0,1-2.2,1.229c-1.112,0-2.025-.551-2.025-1.768,0-1.7,1.65-1.757,3.243-1.944.609-.07.948-.152.948-.82,0-1-.715-1.241-1.581-1.241-.914,0-1.592.421-1.616,1.405Zm3.934.89h-.024c-.094.176-.421.234-.62.269-1.253.223-2.81.211-2.81,1.393a1.258,1.258,0,0,0,1.346,1.194,1.942,1.942,0,0,0,2.108-1.9Z" transform="translate(-265.278 -72.843)" fill="#464545"/>
    <path id="Caminho_737" data-name="Caminho 737" d="M319.369,113.665l9.046,4.267c.491.248.557.236.98-.067l1.928-1.37c.45-.321.442-.429.135-.843l-11.39-15.362c-.326-.438-.41-.449-.862-.13l-1.854,1.314c-.424.3-.46.407-.134.847l6.05,8.156.324.44c.477.639.717.911,1.27,1.608l.624.786a22.8,22.8,0,0,0-4.04-2.249l-9.921-4.724c-.534-.257-.621-.27-1.043.03l-1.578,1.123c-.45.319-.462.4-.14.843l11.391,15.357c.33.439.415.456.864.131l1.826-1.294c.448-.323.445-.431.136-.844l-5.632-7.6-1.6-2.157-.643-.815a31.768,31.768,0,0,0,4.258,2.547m1.019.11,9.877-1.76c.546-.081.6-.13.758-.619l.738-2.214c.167-.52.1-.606-.4-.766l-18.428-5.864c-.529-.17-.608-.131-.778.386l-.708,2.13c-.164.492-.13.6.4.764l9.787,3.116.529.167c.765.245,1.125.329,1.987.571l.979.28a22.82,22.82,0,0,0-4.616.5l-10.864,1.887c-.586.1-.666.142-.826.63l-.6,1.812c-.171.524-.133.6.4.764l18.428,5.865c.529.169.608.13.78-.389l.7-2.1c.171-.518.1-.6-.394-.758l-9.113-2.9-2.587-.824-1.01-.292a33.389,33.389,0,0,0,4.97-.387m.89-.5,6.935-7.109c.4-.381.4-.447.242-.936l-.735-2.218c-.17-.519-.278-.548-.777-.388l-18.426,5.866c-.53.171-.57.245-.4.762l.7,2.133c.162.49.249.556.778.388l9.788-3.116.531-.167c.762-.244,1.1-.383,1.947-.683l.962-.34a22.564,22.564,0,0,0-3.436,3.067l-7.653,7.779c-.414.423-.453.5-.29.99l.606,1.813c.167.519.243.557.773.388l18.431-5.864c.526-.171.566-.246.4-.763l-.7-2.106c-.172-.517-.279-.545-.777-.385l-9.11,2.9-2.587.821-.991.344a31.739,31.739,0,0,0,3.786-3.176m.422-.915,1.345-9.748c.091-.534.058-.595-.365-.894l-1.929-1.37c-.447-.323-.551-.287-.861.131L308.5,115.833c-.326.441-.314.526.135.841L310.487,118c.428.3.535.305.864-.136l6.048-8.155.328-.442c.471-.638.665-.947,1.165-1.677l.576-.827a21.78,21.78,0,0,0-.939,4.459l-1.521,10.7c-.086.578-.069.662.354.967l1.576,1.12c.448.319.534.3.865-.132l11.387-15.357c.328-.442.313-.526-.136-.847l-1.826-1.3c-.448-.318-.554-.283-.862.135l-5.632,7.592-1.6,2.154-.591.852a31.671,31.671,0,0,0,1.156-4.749m-.211-.986-4.761-8.66c-.247-.484-.31-.515-.833-.515h-2.382c-.554,0-.615.091-.615.607v18.979c0,.547.061.605.615.605H315.8c.527,0,.615-.058.615-.605V111.159c0-.786-.025-1.149-.06-2.027l-.028-1a21.715,21.715,0,0,0,1.914,4.151l5.189,9.534c.284.518.342.576.87.576h1.944c.557,0,.617-.058.617-.605V102.8c0-.548-.06-.607-.617-.607h-2.256c-.559,0-.618.091-.618.607V114.85l.031,1.031a31.564,31.564,0,0,0-1.915-4.511" transform="translate(-168.641 -54.716)" fill="#f68700" fill-rule="evenodd"/>
    <rect id="Retângulo_120" data-name="Retângulo 120" width="142.154" height="0.543" transform="translate(88.927 38.696)" fill="#464545"/>
  </g>
</svg>
