<svg id="aid-kit" xmlns="http://www.w3.org/2000/svg" width="50" height="46.875" viewBox="0 0 50 46.875">
  <path id="aid-kit-2" data-name="aid-kit" d="M43.75,41.375H34.375v-6.25A3.134,3.134,0,0,0,31.25,32H18.75a3.134,3.134,0,0,0-3.125,3.125v6.25H6.25A6.268,6.268,0,0,0,0,47.625v25a6.268,6.268,0,0,0,6.25,6.25h37.5A6.268,6.268,0,0,0,50,72.625v-25A6.268,6.268,0,0,0,43.75,41.375Zm-25-6.25h12.5v6.25H18.75ZM37.5,63.25H28.125v9.375h-6.25V63.25H12.5V57h9.375V47.625h6.25V57H37.5Z" transform="translate(0 -32)" fill="#fff"/>
</svg>
