<svg id="Componente_8_7" data-name="Componente 8 – 7" xmlns="http://www.w3.org/2000/svg" width="39.794" height="39.794" viewBox="0 0 39.794 39.794">
  <g id="Grupo_184" data-name="Grupo 184">
    <path id="Caminho_107" data-name="Caminho 107" d="M2586.6,347.676a2.333,2.333,0,1,0,2.333,2.333A2.333,2.333,0,0,0,2586.6,347.676Z" transform="translate(-2556.166 -340.571)" fill="#fff"/>
    <path id="Caminho_108" data-name="Caminho 108" d="M2441.615,373.243a9.8,9.8,0,1,0,9.8,9.8A9.811,9.811,0,0,0,2441.615,373.243Zm0,16.078a6.278,6.278,0,1,1,6.277-6.278A6.285,6.285,0,0,1,2441.615,389.321Z" transform="translate(-2421.555 -363.146)" fill="#fff"/>
    <path id="Caminho_109" data-name="Caminho 109" d="M2371.975,326.749h-15.888a11.966,11.966,0,0,1-11.953-11.953V298.908a11.966,11.966,0,0,1,11.953-11.953h15.888a11.967,11.967,0,0,1,11.954,11.953V314.8A11.967,11.967,0,0,1,2371.975,326.749Zm-15.888-36.05a8.218,8.218,0,0,0-8.209,8.209V314.8a8.218,8.218,0,0,0,8.209,8.209h15.888a8.218,8.218,0,0,0,8.209-8.209V298.908a8.218,8.218,0,0,0-8.209-8.209Z" transform="translate(-2344.134 -286.955)" fill="#fff"/>
  </g>
</svg>
