<svg id="Componente_13_2" data-name="Componente 13 – 2" xmlns="http://www.w3.org/2000/svg" width="249.863" height="284.566" viewBox="0 0 249.863 284.566">
  <g id="Grupo_115" data-name="Grupo 115" transform="translate(52.481 50.752)">
    <path id="Caminho_60" data-name="Caminho 60" d="M4085.062-378.44H4033.3a9.426,9.426,0,0,1-9.413-9.415,9.423,9.423,0,0,1,9.413-9.414h51.767a9.426,9.426,0,0,1,9.417,9.414A9.429,9.429,0,0,1,4085.062-378.44ZM4033.3-392.961a5.11,5.11,0,0,0-5.1,5.106,5.108,5.108,0,0,0,5.1,5.1h51.767a5.11,5.11,0,0,0,5.1-5.1,5.111,5.111,0,0,0-5.1-5.106Z" transform="translate(-3987.099 575.392)" fill="#fff"/>
    <path id="Caminho_61" data-name="Caminho 61" d="M4057.635-350.966a15.567,15.567,0,0,1-15.139-11.7,19.083,19.083,0,0,1-16.349-18.829v-2.156h62.939v2.156a19.078,19.078,0,0,1-16.31,18.826A15.564,15.564,0,0,1,4057.635-350.966Zm-27.018-28.377a14.793,14.793,0,0,0,13.794,12.536l1.745.1.262,1.728a11.3,11.3,0,0,0,11.217,9.7,11.3,11.3,0,0,0,11.218-9.7l.258-1.727,1.746-.1a14.787,14.787,0,0,0,13.761-12.536Z" transform="translate(-3985.539 584.779)" fill="#fff"/>
    <path id="Caminho_62" data-name="Caminho 62" d="M4108.221-328.9H4039.78v-24.8a300.914,300.914,0,0,0-22.242-32.46,71.174,71.174,0,0,1-15.427-44.462A72.167,72.167,0,0,1,4074.2-502.7a72.161,72.161,0,0,1,72.08,72.085,71.15,71.15,0,0,1-15.432,44.474,340.624,340.624,0,0,0-22.626,33.073Zm-64.13-4.312h59.817v-21.053l.309-.514a346.226,346.226,0,0,1,23.244-34.035,66.875,66.875,0,0,0,14.508-41.8,67.848,67.848,0,0,0-67.769-67.774,67.851,67.851,0,0,0-67.777,67.774,66.89,66.89,0,0,0,14.5,41.795,305.347,305.347,0,0,1,22.868,33.445l.3.507Z" transform="translate(-4002.111 502.699)" fill="#fff"/>
  </g>
  <rect id="Retângulo_35" data-name="Retângulo 35" width="4.926" height="76.49" transform="translate(96.66 146.596) rotate(-12.354)" fill="#fff"/>
  <rect id="Retângulo_36" data-name="Retângulo 36" width="78.065" height="4.311" transform="matrix(0.209, -0.978, 0.978, 0.209, 131.36, 221.951)" fill="#fff"/>
  <rect id="Retângulo_37" data-name="Retângulo 37" width="24.224" height="4.311" transform="translate(112.833 268.823)" fill="#fff"/>
  <path id="Caminho_63" data-name="Caminho 63" d="M4049.738-419.277l-4.31-16.527-11.718,7.84L4032-430.523l15.314-10.249,3.079,11.8,7.908-19.238,6.519,18.6,11.539-5.276,1.279,2.8-14.607,6.68-4.958-14.143Z" transform="translate(-3929.022 591.022)" fill="#fff"/>
  <path id="Caminho_64" data-name="Caminho 64" d="M4047.125-497.018a1.847,1.847,0,0,1-1.846-1.847v-32.026a1.848,1.848,0,0,1,1.846-1.848,1.849,1.849,0,0,1,1.85,1.848v32.026A1.848,1.848,0,0,1,4047.125-497.018Z" transform="translate(-3919.866 532.739)" fill="#fff"/>
  <path id="Caminho_65" data-name="Caminho 65" d="M4076.173-491.814a1.845,1.845,0,0,1-.956-.267,1.849,1.849,0,0,1-.624-2.537l16.6-27.388a1.844,1.844,0,0,1,2.538-.622,1.85,1.85,0,0,1,.624,2.538l-16.6,27.387A1.845,1.845,0,0,1,4076.173-491.814Z" transform="translate(-3899.838 539.525)" fill="#fff"/>
  <path id="Caminho_66" data-name="Caminho 66" d="M4094.223-474.062a1.843,1.843,0,0,1-1.64-.993,1.85,1.85,0,0,1,.783-2.494l28.389-14.818a1.845,1.845,0,0,1,2.49.784,1.842,1.842,0,0,1-.779,2.492l-28.389,14.82A1.835,1.835,0,0,1,4094.223-474.062Z" transform="translate(-3887.395 560.43)" fill="#fff"/>
  <path id="Caminho_67" data-name="Caminho 67" d="M4131.646-452.265c-.039,0-.081,0-.121,0l-31.959-2.043a1.845,1.845,0,0,1-1.726-1.96A1.852,1.852,0,0,1,4099.8-458l31.96,2.041a1.849,1.849,0,0,1,1.727,1.961A1.851,1.851,0,0,1,4131.646-452.265Z" transform="translate(-3883.629 584.269)" fill="#fff"/>
  <path id="Caminho_68" data-name="Caminho 68" d="M4117.252-407.453a1.853,1.853,0,0,1-1.053-.331l-26.273-18.311a1.844,1.844,0,0,1-.458-2.571,1.847,1.847,0,0,1,2.572-.459l26.272,18.311a1.848,1.848,0,0,1,.459,2.573A1.847,1.847,0,0,1,4117.252-407.453Z" transform="translate(-3889.627 603.95)" fill="#fff"/>
  <path id="Caminho_69" data-name="Caminho 69" d="M4022.1-491.814a1.838,1.838,0,0,1-1.58-.89l-16.6-27.387a1.844,1.844,0,0,1,.622-2.538,1.846,1.846,0,0,1,2.538.622l16.6,27.388a1.85,1.85,0,0,1-.621,2.537A1.842,1.842,0,0,1,4022.1-491.814Z" transform="translate(-3948.569 539.525)" fill="#fff"/>
  <path id="Caminho_70" data-name="Caminho 70" d="M4008.86-474.062a1.814,1.814,0,0,1-.852-.209l-28.391-14.82a1.847,1.847,0,0,1-.784-2.492,1.853,1.853,0,0,1,2.494-.784l28.388,14.818a1.845,1.845,0,0,1,.782,2.494A1.842,1.842,0,0,1,4008.86-474.062Z" transform="translate(-3965.824 560.431)" fill="#fff"/>
  <path id="Caminho_71" data-name="Caminho 71" d="M3972.892-452.264a1.848,1.848,0,0,1-1.842-1.732,1.85,1.85,0,0,1,1.726-1.961l31.96-2.041a1.846,1.846,0,0,1,1.961,1.728,1.845,1.845,0,0,1-1.725,1.96l-31.959,2.043C3972.972-452.264,3972.931-452.264,3972.892-452.264Z" transform="translate(-3971.047 584.269)" fill="#fff"/>
  <path id="Caminho_72" data-name="Caminho 72" d="M3984.963-407.453a1.851,1.851,0,0,1-1.519-.789,1.849,1.849,0,0,1,.461-2.573l26.274-18.311a1.847,1.847,0,0,1,2.571.459,1.846,1.846,0,0,1-.457,2.571l-26.276,18.311A1.85,1.85,0,0,1,3984.963-407.453Z" transform="translate(-3962.728 603.95)" fill="#fff"/>
</svg>
