<svg id="map-pin_1_" data-name="map-pin (1)" xmlns="http://www.w3.org/2000/svg" width="19.266" height="23.548" viewBox="0 0 19.266 23.548">
  <path id="Exclusão_1" data-name="Exclusão 1" d="M-593.659-3476.921h0a31.893,31.893,0,0,1-4.816-4.147,21.586,21.586,0,0,1-3.312-4.432,11.18,11.18,0,0,1-1.505-5.335,9.644,9.644,0,0,1,9.634-9.634,9.644,9.644,0,0,1,9.633,9.634,11.181,11.181,0,0,1-1.505,5.335,21.586,21.586,0,0,1-3.311,4.432,31.9,31.9,0,0,1-4.816,4.147Zm0-17.126a3.215,3.215,0,0,0-3.211,3.211,3.215,3.215,0,0,0,3.211,3.211,3.214,3.214,0,0,0,3.21-3.211A3.214,3.214,0,0,0-593.659-3494.047Z" transform="translate(603.293 3500.469)" fill="#fff"/>
</svg>
