<svg id="sphere" xmlns="http://www.w3.org/2000/svg" width="50" height="50" viewBox="0 0 50 50">
  <path id="sphere-2" data-name="sphere" d="M41,16A25,25,0,1,0,66,41,25,25,0,0,0,41,16ZM55.145,49.333a39.749,39.749,0,0,0,.821-6.667H62.6a21.45,21.45,0,0,1-1.6,6.667ZM26.855,32.667a39.751,39.751,0,0,0-.821,6.667H19.4a21.453,21.453,0,0,1,1.6-6.667Zm24.876,0a35.881,35.881,0,0,1,.9,6.667H42.667V32.667Zm-9.064-3.333V19.576a7.606,7.606,0,0,1,2.251,1.113,14.3,14.3,0,0,1,3.83,4.348,24.119,24.119,0,0,1,2.005,4.3Zm-9.415-4.3a14.3,14.3,0,0,1,3.83-4.348,7.605,7.605,0,0,1,2.251-1.113v9.757H31.247A24.132,24.132,0,0,1,33.252,25.037Zm6.082,7.629v6.667H29.369a35.881,35.881,0,0,1,.9-6.667ZM20.994,49.333a21.452,21.452,0,0,1-1.6-6.667h6.638a39.75,39.75,0,0,0,.821,6.667Zm8.375-6.667h9.964v6.667H30.269a35.889,35.889,0,0,1-.9-6.667Zm9.964,10v9.757a7.61,7.61,0,0,1-2.251-1.113,14.3,14.3,0,0,1-3.83-4.348,24.133,24.133,0,0,1-2.005-4.3h8.087Zm9.415,4.3a14.3,14.3,0,0,1-3.83,4.348,7.608,7.608,0,0,1-2.251,1.113V52.667h8.087A24.133,24.133,0,0,1,48.748,56.963Zm-6.082-7.629V42.667h9.964a35.862,35.862,0,0,1-.9,6.667Zm13.3-10a39.751,39.751,0,0,0-.821-6.667h5.861a21.45,21.45,0,0,1,1.6,6.667Zm3.3-10H54.269a26.453,26.453,0,0,0-3.923-7.887,21.813,21.813,0,0,1,8.917,7.887ZM25.679,25.679a21.605,21.605,0,0,1,5.975-4.233,26.45,26.45,0,0,0-3.923,7.887H22.737a21.72,21.72,0,0,1,2.943-3.654ZM22.737,52.667h4.995a26.455,26.455,0,0,0,3.923,7.887,21.814,21.814,0,0,1-8.917-7.887Zm33.584,3.654a21.6,21.6,0,0,1-5.975,4.233,26.45,26.45,0,0,0,3.923-7.887h4.995A21.71,21.71,0,0,1,56.321,56.321Z" transform="translate(-16 -16)" fill="#fff"/>
</svg>
