<svg id="briefcase" xmlns="http://www.w3.org/2000/svg" width="50" height="40.625" viewBox="0 0 50 40.625">
  <path id="briefcase-2" data-name="briefcase" d="M46.875,70.25h-12.5V67.125A3.134,3.134,0,0,0,31.25,64H18.75a3.134,3.134,0,0,0-3.125,3.125V70.25H3.125A3.134,3.134,0,0,0,0,73.375V101.5a3.134,3.134,0,0,0,3.125,3.125h43.75A3.134,3.134,0,0,0,50,101.5V73.375A3.134,3.134,0,0,0,46.875,70.25ZM18.75,67.131l.006-.006H31.244l.006.006V70.25H18.75V67.131ZM46.875,82.75h-6.25v4.688A1.567,1.567,0,0,1,39.063,89H35.938a1.567,1.567,0,0,1-1.562-1.562V82.75H15.625v4.688A1.567,1.567,0,0,1,14.063,89H10.938a1.567,1.567,0,0,1-1.563-1.562V82.75H3.125V79.625h43.75Z" transform="translate(0 -64)" fill="#fff"/>
</svg>
