<?xml version="1.0" encoding="utf-8"?>
<!-- Generator: Adobe Illustrator 24.2.3, SVG Export Plug-In . SVG Version: 6.00 Build 0)  -->
<svg version="1.1" id="Camada_1" xmlns="http://www.w3.org/2000/svg" xmlns:xlink="http://www.w3.org/1999/xlink" x="0px" y="0px"
	 viewBox="0 0 96 35" style="enable-background:new 0 0 96 35;" xml:space="preserve">
<style type="text/css">
	.st0{fill-rule:evenodd;clip-rule:evenodd;fill:#FFFFFF;}
	.st1{fill:#FFFFFF;}
</style>
<g>
	<g>
		<path class="st0" d="M12.35,1.92C6.13,4.43,1.72,10.46,1.72,17.47h0.06c0.03-4.2,5.07-6.41,10.57-7.32V1.92z"/>
		<path class="st0" d="M12.35,33.08C6.13,30.57,1.72,24.55,1.72,17.53h0.06c0.03,4.2,5.07,6.41,10.57,7.32V33.08z"/>
		<path class="st0" d="M22.73,33.08c6.23-2.51,10.64-8.54,10.64-15.58h-0.06c-0.02,4.21-5.07,6.42-10.58,7.34
			C22.73,24.84,22.73,33.08,22.73,33.08z"/>
		<path class="st0" d="M22.73,1.92c6.23,2.5,10.64,8.55,10.64,15.58h-0.06c-0.02-4.2-5.07-6.42-10.58-7.33
			C22.73,10.17,22.73,1.92,22.73,1.92z"/>
	</g>
	<g>
		<g>
			<path class="st0" d="M82.97,13.2l0.74-5.3c0.02-0.09,0.03-0.18,0.05-0.25c0.01-0.06,0.02-0.11,0.02-0.15
				c0.01-0.05,0.02-0.1,0.02-0.19c0-0.31-0.16-0.53-0.47-0.67V6.62h2.34c0.04,0.21,0.09,0.4,0.15,0.54l2.53,5.53l2.27-5.41
				c0.08-0.17,0.13-0.39,0.16-0.66h2.31v0.02c-0.25,0.08-0.39,0.32-0.41,0.7C92.7,7.4,92.7,7.47,92.7,7.59l0.86,5.95
				c0.05,0.37,0.11,0.64,0.2,0.81c0.09,0.16,0.25,0.32,0.5,0.47l-0.02,0.02h-2.57v-0.05c0.34-0.11,0.51-0.36,0.51-0.75
				c0-0.14,0-0.25-0.01-0.32c0-0.06-0.01-0.13-0.02-0.2l-0.7-5.7l-2.99,7.16c-0.27-0.17-0.48-0.36-0.63-0.55
				c-0.15-0.19-0.31-0.44-0.46-0.77l-2.64-5.84l-0.81,5.73c0,0.17-0.01,0.29-0.02,0.37c0.02,0.42,0.18,0.7,0.49,0.86v0.05h-2.16
				v-0.05C82.61,14.52,82.86,13.99,82.97,13.2"/>
			<path class="st0" d="M69.47,13.59V7.96c0-0.72-0.21-1.16-0.6-1.32V6.62h3.22c0.86,0,1.59,0.17,2.17,0.52
				c0.59,0.35,0.89,0.89,0.92,1.62c0.02,0.7-0.24,1.25-0.78,1.66c-0.55,0.4-1.1,0.64-1.67,0.7c-0.13,0-0.31,0.02-0.52,0.06
				c-0.38-0.03-0.7-0.1-0.96-0.23c0.59,0,1.14-0.17,1.65-0.54c0.5-0.36,0.74-0.82,0.74-1.39c0-0.52-0.17-0.9-0.51-1.15
				c-0.35-0.24-0.81-0.36-1.38-0.36c-0.32,0-0.63,0.02-0.92,0.08v5.95c0,0.31,0.05,0.55,0.15,0.74c0.1,0.2,0.28,0.36,0.53,0.51
				l0.02,0.05h-2.65v-0.05C69.25,14.63,69.47,14.23,69.47,13.59"/>
			<path class="st0" d="M65.86,13.07V8.28c0-0.55-0.03-0.94-0.09-1.16c-0.06-0.22-0.22-0.39-0.49-0.48V6.62h2.53v0.02
				c-0.12,0.05-0.22,0.12-0.3,0.21s-0.14,0.2-0.17,0.32c-0.04,0.13-0.06,0.27-0.07,0.42c-0.02,0.15-0.02,0.38-0.02,0.69v4.79
				c0,0.59,0.03,1,0.1,1.21c0.07,0.22,0.23,0.39,0.47,0.51v0.05H65.3v-0.05c0.25-0.09,0.41-0.25,0.48-0.51
				C65.83,14.03,65.86,13.63,65.86,13.07"/>
			<path class="st0" d="M56.33,13.33V8.05c0-0.45-0.06-0.76-0.17-0.93c-0.11-0.17-0.29-0.33-0.54-0.48V6.62h1.96
				c0,0.08,0.13,0.28,0.41,0.59l4.87,5.76v-4.9c0-0.34-0.04-0.63-0.12-0.86c-0.09-0.24-0.28-0.43-0.59-0.57V6.62h2.35v0.02
				c-0.26,0.17-0.44,0.34-0.55,0.53c-0.1,0.19-0.15,0.51-0.15,0.96l0.02,7.1c-0.44-0.13-0.78-0.28-1.01-0.46
				c-0.23-0.17-0.48-0.42-0.74-0.72l-4.78-5.68v4.96c0,0.43,0.04,0.73,0.13,0.91c0.09,0.18,0.29,0.36,0.57,0.55v0.05H55.6v-0.05
				c0.28-0.13,0.46-0.31,0.56-0.53C56.28,14.05,56.33,13.73,56.33,13.33"/>
			<path class="st0" d="M52.78,13.07V8.28c0-0.55-0.02-0.94-0.09-1.16c-0.06-0.22-0.22-0.39-0.48-0.48V6.62h2.53v0.02
				c-0.13,0.05-0.23,0.12-0.31,0.21s-0.13,0.2-0.17,0.32c-0.03,0.13-0.06,0.27-0.07,0.42c-0.02,0.15-0.02,0.38-0.02,0.69v4.79
				c0,0.59,0.04,1,0.11,1.21c0.07,0.22,0.22,0.39,0.47,0.51v0.05h-2.53v-0.05c0.25-0.09,0.4-0.25,0.48-0.51
				C52.74,14.03,52.78,13.63,52.78,13.07"/>
			<path class="st0" d="M45.94,13.28V8.15c0-0.44-0.04-0.78-0.11-1.02c-0.07-0.24-0.24-0.4-0.49-0.49V6.62h2.55v0.02
				c-0.25,0.08-0.41,0.23-0.48,0.43c-0.07,0.21-0.12,0.48-0.13,0.81c0.01,0.06,0.02,0.16,0.02,0.28v5.69
				c0.25,0.01,0.52,0.02,0.8,0.03c0.28,0.02,0.52,0.03,0.74,0.05c0.21,0.01,0.34,0.02,0.4,0.02c0.74,0.02,1.51-0.23,2.27-0.76
				l0.03,0.02l-0.68,1.64h-5.5V14.8c0.4-0.13,0.6-0.55,0.6-1.25v-0.27H45.94z"/>
			<path class="st0" d="M37.1,11.1c-0.05-0.87,0.11-1.68,0.48-2.41s0.92-1.29,1.65-1.7c0.73-0.4,1.59-0.61,2.57-0.61
				c0.71,0,1.51,0.12,2.41,0.35v1.42c-0.86-0.51-1.72-0.74-2.57-0.71c-0.95,0.02-1.69,0.33-2.22,0.93c-0.53,0.6-0.81,1.32-0.82,2.17
				c0.02,0.62,0.17,1.19,0.44,1.72c0.28,0.53,0.67,0.96,1.2,1.28c0.53,0.32,1.16,0.48,1.89,0.47c0.86-0.02,1.77-0.3,2.72-0.82h0.04
				l-0.69,1.47c-0.41,0.15-0.79,0.25-1.14,0.3c-0.34,0.06-0.71,0.08-1.08,0.07c-1.29-0.02-2.41-0.35-3.34-1
				C37.72,13.39,37.19,12.41,37.1,11.1"/>
			<path class="st0" d="M75.03,13.05l2.28-5.39c0.09-0.25,0.13-0.43,0.13-0.54c0-0.25-0.13-0.42-0.39-0.48V6.62h2.11l2.95,6.81
				c0.2,0.41,0.37,0.7,0.5,0.88c0.13,0.17,0.34,0.33,0.65,0.48v0.05h-2.74v-0.05c0.31-0.12,0.47-0.26,0.47-0.42
				c0-0.13-0.06-0.3-0.16-0.51c-1.12-2.8-1.28-3.12-2.55-6.2c-1.09,2.57-1.54,3.77-2.46,6.1c-0.07,0.19-0.11,0.36-0.13,0.49
				c0.03,0.27,0.19,0.45,0.5,0.54v0.05h-2.45v-0.05c0.25-0.13,0.45-0.28,0.59-0.44c0.15-0.17,0.27-0.36,0.36-0.55
				C74.79,13.6,74.9,13.35,75.03,13.05"/>
		</g>
	</g>
	<g>
		<g>
			<path class="st1" d="M42.69,26.66h-0.23l-0.04-0.62h-0.01c-0.23,0.49-0.69,0.69-1.18,0.69c-1.07,0-1.6-0.84-1.6-1.77
				s0.53-1.77,1.6-1.77c0.71,0,1.29,0.39,1.42,1.13h-0.32c-0.04-0.39-0.45-0.85-1.09-0.85c-0.9,0-1.28,0.75-1.28,1.49
				c0,0.74,0.38,1.49,1.28,1.49c0.75,0,1.19-0.53,1.18-1.25h-1.16v-0.28h1.44L42.69,26.66L42.69,26.66z"/>
			<path class="st1" d="M43.26,24.2h0.28v0.58h0.01c0.15-0.39,0.49-0.63,0.93-0.61v0.3c-0.54-0.03-0.91,0.37-0.91,0.88v1.31h-0.3
				L43.26,24.2L43.26,24.2z"/>
			<path class="st1" d="M46.74,26.66h-0.28v-0.44h-0.01c-0.16,0.33-0.48,0.51-0.85,0.51c-0.62,0-0.86-0.36-0.86-0.93v-1.6h0.3v1.6
				c0.01,0.44,0.18,0.68,0.66,0.68c0.51,0,0.74-0.49,0.74-0.98v-1.3h0.3C46.75,24.2,46.75,26.66,46.74,26.66z"/>
			<path class="st1" d="M47.32,24.2h0.28v0.47h0.01c0.14-0.33,0.48-0.54,0.88-0.54c0.75,0,1.1,0.6,1.1,1.3c0,0.69-0.36,1.3-1.1,1.3
				c-0.37,0-0.72-0.19-0.85-0.54h-0.01v1.38h-0.3V24.2H47.32z M48.48,24.38c-0.66,0-0.86,0.49-0.86,1.05c0,0.51,0.22,1.05,0.86,1.05
				c0.57,0,0.8-0.54,0.8-1.05S49.05,24.38,48.48,24.38z"/>
			<path class="st1" d="M52.24,25.43c0,0.7-0.41,1.3-1.16,1.3s-1.16-0.59-1.16-1.3c0-0.7,0.41-1.3,1.16-1.3
				C51.83,24.13,52.24,24.73,52.24,25.43z M50.22,25.43c0,0.52,0.29,1.05,0.86,1.05c0.58,0,0.86-0.52,0.86-1.05
				s-0.29-1.05-0.86-1.05C50.51,24.38,50.22,24.91,50.22,25.43z"/>
		</g>
		<g>
			<path class="st1" d="M94.19,29.01c-0.01,0.01-0.64,0.86-4.23,1.03c-1.67,0.08-3.11-0.09-4.51-0.25c-1.3-0.15-2.53-0.29-3.88-0.23
				c-2.88,0.12-4.28,1.1-4.29,1.11l0.05,0.08c0.01-0.01,1.4-0.81,4.25-0.93c1.34-0.06,2.57,0.08,3.87,0.23
				c1.4,0.16,2.84,0.32,4.52,0.25c3.64-0.17,4.27-1.19,4.3-1.24L94.19,29.01z"/>
			<g>
				<path class="st1" d="M68.42,20.58h0.36l1.99,2.89h0.01v-2.89h0.33V24h-0.36l-1.99-2.89h-0.01V24h-0.33V20.58z"/>
				<path class="st1" d="M73.94,22.76c0,0.71-0.41,1.31-1.17,1.31c-0.76,0-1.17-0.6-1.17-1.31s0.41-1.31,1.17-1.31
					C73.53,21.45,73.94,22.05,73.94,22.76z M71.9,22.76c0,0.53,0.29,1.05,0.87,1.05s0.87-0.53,0.87-1.05c0-0.53-0.29-1.05-0.87-1.05
					S71.9,22.23,71.9,22.76z"/>
				<path class="st1" d="M74.86,21.52h0.5v0.25h-0.5v1.66c0,0.2,0.03,0.31,0.24,0.33c0.09,0,0.17,0,0.26-0.01v0.26
					c-0.09,0-0.18,0.01-0.27,0.01c-0.4,0-0.54-0.13-0.54-0.55v-1.69h-0.42v-0.25h0.43v-0.74h0.3
					C74.87,20.79,74.87,21.52,74.86,21.52z"/>
				<path class="st1" d="M75.81,21.52h0.28v0.58h0.01c0.15-0.4,0.49-0.63,0.93-0.61v0.3c-0.55-0.03-0.92,0.37-0.92,0.88v1.32h-0.3
					V21.52z"/>
				<path class="st1" d="M77.4,22.84c0,0.44,0.23,0.97,0.81,0.97c0.44,0,0.68-0.26,0.77-0.63h0.3c-0.13,0.56-0.45,0.88-1.08,0.88
					c-0.78,0-1.11-0.6-1.11-1.31c0-0.65,0.33-1.31,1.11-1.31c0.79,0,1.11,0.69,1.09,1.39H77.4V22.84z M79,22.59
					c-0.01-0.45-0.3-0.88-0.78-0.88c-0.49,0-0.77,0.43-0.81,0.88H79z"/>
				<path class="st1" d="M79.76,20.58h1.18c1.03,0.02,1.57,0.59,1.57,1.71c0,1.12-0.54,1.68-1.57,1.71h-1.18V20.58z M80.1,23.72
					h0.69c0.98,0,1.41-0.41,1.41-1.43s-0.43-1.44-1.41-1.43H80.1V23.72z"/>
				<path class="st1" d="M82.96,22.28c0.03-0.58,0.44-0.83,1-0.83c0.44,0,0.91,0.13,0.91,0.79v1.31c0,0.11,0.06,0.18,0.18,0.18
					c0.03,0,0.07-0.01,0.1-0.02v0.25c-0.07,0.01-0.11,0.02-0.2,0.02c-0.31,0-0.35-0.17-0.35-0.43h-0.01c-0.21,0.32-0.43,0.5-0.9,0.5
					c-0.45,0-0.83-0.22-0.83-0.72c0-0.69,0.67-0.72,1.33-0.79c0.25-0.03,0.39-0.06,0.39-0.33c0-0.41-0.29-0.51-0.65-0.51
					c-0.37,0-0.65,0.17-0.66,0.57L82.96,22.28L82.96,22.28z M84.57,22.64L84.57,22.64c-0.05,0.07-0.18,0.1-0.26,0.11
					c-0.51,0.09-1.15,0.09-1.15,0.57c0,0.3,0.27,0.49,0.55,0.49c0.46,0,0.87-0.29,0.86-0.77V22.64z"/>
				<path class="st1" d="M85.47,21.52h0.28v0.42h0.01c0.16-0.3,0.42-0.49,0.81-0.49c0.33,0,0.62,0.16,0.71,0.48
					c0.15-0.33,0.46-0.48,0.78-0.48c0.54,0,0.82,0.28,0.82,0.87v1.67h-0.3v-1.66c0-0.41-0.15-0.63-0.58-0.63
					c-0.52,0-0.67,0.43-0.67,0.89v1.4h-0.3v-1.67c0-0.33-0.13-0.61-0.52-0.61c-0.52,0-0.73,0.39-0.74,0.91V24h-0.3
					C85.46,24,85.46,21.52,85.47,21.52z"/>
				<path class="st1" d="M89.63,22.84c0,0.44,0.23,0.97,0.81,0.97c0.44,0,0.68-0.26,0.77-0.63h0.3c-0.13,0.56-0.45,0.88-1.08,0.88
					c-0.78,0-1.11-0.6-1.11-1.31c0-0.65,0.33-1.31,1.11-1.31c0.79,0,1.11,0.69,1.09,1.39h-1.89V22.84z M91.22,22.59
					c-0.01-0.45-0.3-0.88-0.78-0.88c-0.49,0-0.77,0.43-0.81,0.88H91.22z"/>
			</g>
			<g>
				<path class="st1" d="M68.43,25.13h0.32v3.34h-0.32V25.13z"/>
				<path class="st1" d="M69.4,26.06h0.29v0.42h0.01c0.11-0.29,0.43-0.49,0.77-0.49c0.68,0,0.88,0.36,0.88,0.93v1.55h-0.29v-1.51
					c0-0.42-0.14-0.73-0.61-0.73s-0.75,0.36-0.76,0.83v1.41h-0.29C69.39,28.47,69.39,26.06,69.4,26.06z"/>
				<path class="st1" d="M72.38,26.06h0.49v0.25h-0.49v1.63c0,0.19,0.03,0.3,0.24,0.32c0.08,0,0.17,0,0.25-0.01v0.25
					c-0.09,0-0.17,0.01-0.26,0.01c-0.39,0-0.53-0.13-0.52-0.54v-1.65h-0.42v-0.25h0.42v-0.73h0.29V26.06z"/>
				<path class="st1" d="M73.47,27.35c0,0.43,0.23,0.95,0.8,0.95c0.43,0,0.66-0.25,0.76-0.62h0.29c-0.13,0.55-0.44,0.87-1.05,0.87
					c-0.77,0-1.09-0.59-1.09-1.28c0-0.64,0.32-1.28,1.09-1.28c0.78,0,1.09,0.68,1.06,1.36H73.47z M75.04,27.1
					c-0.01-0.44-0.29-0.86-0.77-0.86c-0.48,0-0.75,0.42-0.8,0.86H75.04z"/>
				<path class="st1" d="M75.72,26.06h0.27v0.57H76c0.15-0.39,0.48-0.62,0.91-0.6v0.29c-0.53-0.03-0.9,0.37-0.9,0.87v1.29h-0.29
					V26.06z"/>
				<path class="st1" d="M77.19,26.06h0.27v0.41h0.01c0.15-0.29,0.41-0.48,0.79-0.48c0.32,0,0.6,0.15,0.69,0.47
					c0.14-0.32,0.45-0.47,0.77-0.47c0.53,0,0.8,0.28,0.8,0.85v1.64h-0.29v-1.62c0-0.4-0.15-0.61-0.57-0.61
					c-0.51,0-0.66,0.42-0.66,0.87v1.37h-0.29v-1.64c0-0.33-0.13-0.6-0.51-0.6c-0.51,0-0.72,0.38-0.72,0.89v1.35h-0.29
					C77.19,28.49,77.19,26.06,77.19,26.06z"/>
				<path class="st1" d="M81.26,27.35c0,0.43,0.23,0.95,0.8,0.95c0.43,0,0.66-0.25,0.76-0.62h0.29c-0.13,0.55-0.44,0.87-1.05,0.87
					c-0.77,0-1.09-0.59-1.09-1.28c0-0.64,0.32-1.28,1.09-1.28c0.78,0,1.09,0.68,1.06,1.36H81.26z M82.83,27.1
					c-0.01-0.44-0.29-0.86-0.77-0.86c-0.48,0-0.75,0.42-0.8,0.86H82.83z M81.99,25.72h-0.24l0.49-0.66h0.37L81.99,25.72z"/>
				<path class="st1" d="M85.65,28.48h-0.27v-0.46h-0.01c-0.13,0.31-0.51,0.53-0.86,0.53c-0.73,0-1.09-0.59-1.09-1.28
					c0-0.68,0.35-1.28,1.09-1.28c0.36,0,0.71,0.18,0.84,0.53h0.01v-1.39h0.29V28.48z M84.5,28.3c0.63,0,0.85-0.53,0.85-1.03
					s-0.22-1.03-0.85-1.03c-0.56,0-0.79,0.53-0.79,1.03C83.72,27.77,83.94,28.3,84.5,28.3z"/>
				<path class="st1" d="M86.22,25.13h0.29v0.47h-0.29V25.13z M86.22,26.06h0.29v2.42h-0.29V26.06z"/>
				<path class="st1" d="M88.79,26.82c-0.08-0.36-0.3-0.58-0.68-0.58c-0.57,0-0.85,0.51-0.85,1.03c0,0.51,0.28,1.03,0.85,1.03
					c0.37,0,0.66-0.29,0.7-0.69h0.29c-0.08,0.58-0.46,0.94-1,0.94c-0.74,0-1.14-0.59-1.14-1.28c0-0.69,0.4-1.28,1.14-1.28
					c0.51,0,0.91,0.28,0.98,0.83H88.79z"/>
				<path class="st1" d="M89.47,26.8c0.03-0.57,0.43-0.81,0.98-0.81c0.43,0,0.89,0.13,0.89,0.78v1.28c0,0.11,0.06,0.18,0.17,0.18
					c0.03,0,0.07-0.01,0.09-0.02v0.25c-0.07,0.01-0.11,0.02-0.19,0.02c-0.3,0-0.35-0.17-0.35-0.42h-0.01
					c-0.21,0.31-0.42,0.49-0.88,0.49c-0.44,0-0.81-0.22-0.81-0.71c0-0.68,0.66-0.7,1.3-0.78c0.24-0.03,0.38-0.06,0.38-0.33
					c0-0.4-0.29-0.5-0.63-0.5c-0.37,0-0.64,0.17-0.65,0.56L89.47,26.8L89.47,26.8z M91.06,27.16L91.06,27.16
					c-0.05,0.07-0.18,0.09-0.26,0.11c-0.5,0.09-1.12,0.08-1.12,0.56c0,0.29,0.26,0.48,0.54,0.48c0.45,0,0.85-0.29,0.84-0.76
					C91.05,27.55,91.05,27.16,91.06,27.16z"/>
			</g>
			<path class="st0" d="M61.98,25.49l3.62,1.71c0.2,0.1,0.22,0.09,0.39-0.03l0.77-0.55c0.18-0.13,0.18-0.17,0.05-0.34l-4.55-6.14
				c-0.13-0.18-0.16-0.18-0.34-0.05l-0.74,0.53c-0.17,0.12-0.18,0.16-0.05,0.34l2.42,3.26l0.13,0.18c0.19,0.26,0.29,0.36,0.51,0.64
				l0.25,0.31c-0.53-0.37-0.79-0.51-1.61-0.9l-3.97-1.89c-0.21-0.1-0.25-0.11-0.42,0.01l-0.63,0.45c-0.18,0.13-0.18,0.16-0.06,0.34
				l4.55,6.14c0.13,0.18,0.17,0.18,0.35,0.05l0.73-0.52c0.18-0.13,0.18-0.17,0.05-0.34l-2.25-3.04l-0.64-0.85l-0.26-0.33
				C60.9,24.9,61.49,25.26,61.98,25.49 M62.39,25.53l3.95-0.7c0.22-0.03,0.24-0.05,0.3-0.25l0.29-0.89
				c0.07-0.21,0.04-0.24-0.16-0.31l-7.37-2.34c-0.21-0.07-0.24-0.05-0.31,0.15l-0.28,0.85c-0.07,0.2-0.05,0.24,0.16,0.31l3.91,1.25
				l0.21,0.07c0.31,0.1,0.45,0.13,0.79,0.23l0.39,0.11c-0.65,0.01-0.95,0.04-1.85,0.2l-4.34,0.75c-0.23,0.04-0.27,0.06-0.33,0.25
				l-0.24,0.72c-0.07,0.21-0.05,0.24,0.16,0.31l7.37,2.34c0.21,0.07,0.24,0.05,0.31-0.16l0.28-0.84c0.07-0.21,0.04-0.24-0.16-0.3
				l-3.64-1.16l-1.03-0.33l-0.4-0.12C61.15,25.67,61.85,25.63,62.39,25.53 M62.75,25.33l2.77-2.84c0.16-0.15,0.16-0.18,0.1-0.37
				l-0.29-0.89c-0.07-0.21-0.11-0.22-0.31-0.16l-7.37,2.34c-0.21,0.07-0.23,0.1-0.16,0.3l0.28,0.85c0.06,0.2,0.1,0.22,0.31,0.16
				l3.91-1.25l0.21-0.07c0.3-0.1,0.44-0.15,0.78-0.27l0.38-0.14c-0.52,0.38-0.74,0.58-1.37,1.23l-3.06,3.11
				c-0.17,0.17-0.18,0.2-0.12,0.4l0.24,0.72c0.07,0.21,0.1,0.22,0.31,0.15l7.37-2.34c0.21-0.07,0.23-0.1,0.16-0.31l-0.28-0.84
				c-0.07-0.21-0.11-0.22-0.31-0.15l-3.64,1.16l-1.03,0.33l-0.4,0.14C61.83,26.15,62.36,25.72,62.75,25.33 M62.92,24.96l0.54-3.9
				c0.04-0.21,0.02-0.24-0.15-0.36l-0.77-0.55c-0.18-0.13-0.22-0.11-0.34,0.05l-4.55,6.14c-0.13,0.18-0.13,0.21,0.05,0.34l0.74,0.53
				c0.17,0.12,0.21,0.12,0.35-0.05l2.42-3.26l0.13-0.18c0.19-0.26,0.27-0.38,0.47-0.67l0.23-0.33c-0.19,0.61-0.25,0.9-0.38,1.78
				l-0.61,4.28c-0.03,0.23-0.03,0.26,0.14,0.39l0.63,0.45c0.18,0.13,0.21,0.12,0.35-0.05l4.55-6.14c0.13-0.18,0.13-0.21-0.05-0.34
				l-0.73-0.52c-0.18-0.13-0.22-0.11-0.34,0.05l-2.25,3.03l-0.64,0.86l-0.24,0.34C62.67,26.15,62.83,25.5,62.92,24.96 M62.82,24.57
				l-1.9-3.46c-0.1-0.19-0.12-0.21-0.33-0.21h-0.96c-0.22,0-0.25,0.04-0.25,0.24v7.59c0,0.22,0.02,0.24,0.25,0.24h0.91
				c0.21,0,0.25-0.02,0.25-0.24V24.7v-0.22c0-0.31-0.01-0.46-0.02-0.81l-0.01-0.4c0.21,0.61,0.33,0.87,0.77,1.66l2.07,3.81
				c0.11,0.21,0.14,0.23,0.35,0.23h0.78c0.22,0,0.25-0.02,0.25-0.24v-7.59c0-0.22-0.02-0.24-0.25-0.24h-0.9
				c-0.22,0-0.25,0.04-0.25,0.24v3.75v1.06l0.01,0.41C63.35,25.67,63.08,25.04,62.82,24.57"/>
		</g>
	</g>
	<g>
		<rect x="37.28" y="17.39" class="st1" width="56.82" height="0.22"/>
	</g>
</g>
</svg>
