<svg id="Componente_15_1" data-name="Componente 15 – 1" xmlns="http://www.w3.org/2000/svg" width="39.334" height="32.872" viewBox="0 0 39.334 32.872">
  <path id="Caminho_32" data-name="Caminho 32" d="M27542.4,1910.579a21.932,21.932,0,0,0,16.588,8.429s-.918-7.163,5.254-9.356c0,0,5.244-2.191,8.748,1.94,0,0,4.082-.675,5-1.94a6.494,6.494,0,0,1-3.084,4.388,10.733,10.733,0,0,0,4.416-1.017s-2.574,3.262-3.693,3.77a.2.2,0,0,1-.059.023c-1.08.421,1.17,7.754-5.574,16.436a23.438,23.438,0,0,1-14.674,8.346c-3.879.548-9.578,1.012-15.334-3.372a17.311,17.311,0,0,0,11.668-3.625s-6-.506-7.41-5.563c0,0,2.746,0,3.332-.084,0,0-6.418-2.192-6.338-8.387a9.238,9.238,0,0,0,3.379.842A8.723,8.723,0,0,1,27542.4,1910.579Z" transform="translate(-27539.988 -1909.07)" fill="#fff"/>
</svg>
