<svg id="youtube" xmlns="http://www.w3.org/2000/svg" width="46.224" height="32.357" viewBox="0 0 46.224 32.357">
  <path id="Caminho_106" data-name="Caminho 106" d="M3376.216,1332.024a10.143,10.143,0,0,0-10.143-10.144h-25.937a10.144,10.144,0,0,0-10.144,10.144v12.07a10.143,10.143,0,0,0,10.144,10.143h25.938a10.143,10.143,0,0,0,10.143-10.143Zm-15.253,6.94-11.631,5.754c-.456.247-2-.083-2-.6V1332.3c0-.525,1.562-.855,2.018-.595l11.134,6.057C3360.945,1338.033,3361.435,1338.708,3360.962,1338.964Z" transform="translate(-3329.992 -1321.881)" fill="#fff"/>
</svg>
